<?xml version="1.0" encoding="UTF-8"?>
<svg width="83px" height="96px" viewBox="0 0 83 96" version="1.1" xmlns="http://www.w3.org/2000/svg" xmlns:xlink="http://www.w3.org/1999/xlink">
    <!-- Generator: Sketch 61.2 (89653) - https://sketch.com -->
    <title>Path</title>
    <desc>Created with Sketch.</desc>
    <g id="Eater" stroke="none" stroke-width="1" fill="none" fill-rule="evenodd">
        <g id="Artboard-3-Copy-2" transform="translate(-6703.000000, -5804.000000)" fill="#000000" fill-rule="nonzero">
            <path d="M6714.65714,5849.94286 L6737.28571,5827.31429 L6737.28571,5893.14286 C6737.28571,5897.25714 6740.02857,5900 6744.14286,5900 C6748.25714,5900 6751,5897.25714 6751,5893.14286 L6751,5827.31429 L6773.62857,5849.94286 C6776.37143,5852.68571 6780.48571,5852.68571 6783.22857,5849.94286 C6785.97143,5847.2 6785.97143,5843.08571 6783.22857,5840.34286 L6748.94286,5806.05714 C6747.57143,5804.68571 6746.2,5804 6744.14286,5804 C6742.08571,5804 6740.71429,5804.68571 6739.34286,5806.05714 L6705.05714,5840.34286 C6702.31429,5843.08571 6702.31429,5847.2 6705.05714,5849.94286 C6707.8,5852.68571 6711.91429,5852.68571 6714.65714,5849.94286 Z" id="Path"></path>
        </g>
    </g>
</svg>